<svg xmlns="http://www.w3.org/2000/svg" viewBox="0 0 1024.2 115" role="img" aria-labelledby="title">
  <title id="title">Anthropic</title>
  <g fill="#d97757">
    <path d="M250.649 23.349h37.328v89.745h23.825V23.349h37.328V1.906h-98.481zM208.557 79.738 158.522 1.906h-27.003v111.188h23.032V35.262l50.035 77.832h27.002V1.906h-23.031zM444.434 46.222h-52.417V1.906h-23.826v111.188h23.826V67.666h52.417v45.428h23.826V1.906h-23.826zM44.316 1.906 0 113.094h24.779l9.063-23.349h46.364l9.062 23.349h24.779L69.731 1.906zm-2.459 67.189 15.167-39.074L72.19 69.095zM665.698 0c-32.086 0-54.8 23.826-54.8 57.659 0 33.515 22.714 57.341 54.8 57.341 31.926 0 54.482-23.826 54.482-57.341C720.18 23.826 697.624 0 665.698 0m0 92.762c-18.744 0-30.18-13.342-30.18-35.103 0-22.079 11.436-35.421 30.18-35.421 18.584 0 29.861 13.342 29.861 35.421 0 21.761-11.277 35.103-29.861 35.103M998.785 75.767c-4.13 10.801-12.39 16.995-23.668 16.995-18.743 0-30.179-13.342-30.179-35.103 0-22.079 11.436-35.421 30.179-35.421 11.278 0 19.538 6.194 23.668 16.995h25.255C1017.85 15.408 999.261 0 975.117 0c-32.085 0-54.799 23.826-54.799 57.659 0 33.515 22.714 57.341 54.799 57.341 24.303 0 42.883-15.566 49.083-39.233zM846.934 1.906l44.316 111.188h24.302L871.236 1.906zM796.74 1.906h-54.323v111.188h23.826V72.749h30.497c25.256 0 40.663-13.343 40.663-35.422S821.996 1.906 796.74 1.906m-1.112 49.399h-29.385V23.349h29.385c11.755 0 17.949 4.765 17.949 13.978s-6.194 13.978-17.949 13.978M592.631 35.739c0-20.967-15.407-33.833-40.663-33.833h-54.323v111.188h23.826V69.572h26.525l23.827 43.522h26.368l-26.384-46.837c13.243-5.091 20.824-15.811 20.824-30.518m-71.16-12.39h29.385c11.754 0 17.949 4.289 17.949 12.39s-6.195 12.39-17.949 12.39h-29.385z"/>
  </g>
</svg>
